<svg width="229" height="266" viewBox="0 0 229 266" fill="none" xmlns="http://www.w3.org/2000/svg">
<path opacity="0.5" d="M89.4279 220.095C89.4279 220.921 89.1284 221.582 88.55 222.088C87.9613 222.594 87.1248 222.842 86.0404 222.842C85.5343 222.842 85.0489 222.78 84.5738 222.646C84.0988 222.512 83.7167 222.367 83.4378 222.212C83.159 222.057 82.9008 221.871 82.6632 221.665C82.4154 221.458 82.2604 221.303 82.1882 221.221C82.1159 221.138 82.0642 221.076 82.0436 221.035L81.0728 222.109L81.269 222.346C81.3723 222.491 81.5685 222.677 81.8577 222.904C82.1365 223.121 82.4567 223.338 82.8181 223.544C83.1899 223.751 83.6547 223.937 84.2227 224.092C84.8011 224.247 85.4001 224.319 86.0301 224.319C87.5895 224.319 88.8082 223.937 89.6861 223.152C90.5742 222.367 91.008 221.355 91.008 220.095C91.008 219.372 90.8634 218.763 90.5639 218.246C90.2747 217.73 89.8823 217.337 89.4072 217.048C88.9321 216.769 88.4157 216.532 87.8477 216.336C87.2797 216.139 86.7117 215.964 86.1333 215.799C85.5653 215.633 85.0386 215.458 84.5635 215.251C84.0884 215.055 83.7063 214.776 83.4068 214.415C83.1176 214.063 82.9627 213.63 82.9627 213.113C82.9627 212.411 83.2519 211.812 83.8303 211.316C84.4086 210.821 85.1729 210.573 86.1437 210.573C86.5568 210.573 86.9492 210.635 87.3313 210.738C87.7135 210.841 88.0233 210.965 88.2505 211.099C88.4777 211.234 88.6946 211.389 88.9011 211.554C89.1077 211.719 89.242 211.843 89.2936 211.905C89.3556 211.967 89.3969 212.019 89.4175 212.06L90.4813 210.996L90.3057 210.79C90.2024 210.666 90.0165 210.511 89.7583 210.325C89.5105 210.139 89.2213 209.963 88.8908 209.777C88.5707 209.592 88.1679 209.437 87.6825 209.302C87.1971 209.168 86.6807 209.096 86.1437 209.096C84.7184 209.096 83.5721 209.488 82.6942 210.273C81.8267 211.058 81.3826 211.998 81.3826 213.113C81.3826 213.836 81.5375 214.446 81.8267 214.962C82.1262 215.478 82.5083 215.881 82.9834 216.16C83.4585 216.449 83.9748 216.687 84.5429 216.883C85.1212 217.079 85.6892 217.255 86.2573 217.42C86.8356 217.585 87.352 217.761 87.8271 217.957C88.3021 218.164 88.6843 218.442 88.9734 218.794C89.2729 219.155 89.4279 219.589 89.4279 220.095ZM92.0717 209.302V210.79H96.7295V224.112H98.3097V210.79H102.967V209.302H92.0717ZM107.191 222.635V217.131H114.059V215.654H107.191V210.79H115.753V209.302H105.601V224.112H115.97V222.635H107.191ZM119.13 209.302V224.112H120.721V218.618H124.738C126.101 218.618 127.227 218.174 128.136 217.286C129.045 216.398 129.499 215.282 129.499 213.96C129.499 212.638 129.045 211.533 128.146 210.645C127.237 209.757 126.101 209.313 124.738 209.313L119.13 209.302ZM124.738 210.8C125.688 210.8 126.463 211.089 127.041 211.667C127.62 212.246 127.909 213.01 127.909 213.971C127.909 214.921 127.62 215.695 127.041 216.274C126.463 216.852 125.688 217.141 124.738 217.141H120.721V210.8H124.738ZM143.369 216.284L143.597 216.201C143.751 216.139 143.937 216.026 144.144 215.86C144.35 215.695 144.567 215.499 144.784 215.261C145.011 215.034 145.197 214.714 145.352 214.322C145.507 213.929 145.579 213.495 145.579 213.01C145.579 211.926 145.166 211.006 144.33 210.242C143.504 209.478 142.44 209.096 141.139 209.096C140.591 209.096 140.054 209.178 139.538 209.323C139.021 209.468 138.608 209.633 138.288 209.808C137.978 209.984 137.679 210.18 137.4 210.407C137.131 210.635 136.956 210.8 136.873 210.883C136.801 210.975 136.739 211.048 136.698 211.099L137.751 212.266L137.896 212.101C137.989 211.988 138.133 211.843 138.319 211.678C138.505 211.513 138.732 211.337 138.98 211.172C139.238 211.006 139.558 210.862 139.951 210.748C140.343 210.635 140.736 210.573 141.139 210.573C142.016 210.573 142.708 210.81 143.225 211.265C143.741 211.729 143.989 212.308 143.989 213.01C143.989 213.816 143.741 214.466 143.235 214.941C142.729 215.416 142.027 215.654 141.139 215.654H139.651V217.131H141.139C142.182 217.131 143.029 217.41 143.669 217.967C144.309 218.525 144.629 219.207 144.629 219.992C144.629 220.807 144.319 221.489 143.689 222.036C143.07 222.573 142.213 222.852 141.139 222.852C140.643 222.852 140.178 222.78 139.724 222.656C139.269 222.532 138.908 222.388 138.619 222.222C138.34 222.057 138.082 221.882 137.844 221.675C137.596 221.468 137.441 221.324 137.379 221.241C137.307 221.159 137.255 221.086 137.224 221.045L136.161 222.098L136.336 222.336C136.46 222.491 136.667 222.677 136.946 222.894C137.235 223.121 137.555 223.338 137.927 223.544C138.298 223.751 138.763 223.937 139.331 224.092C139.91 224.247 140.509 224.319 141.139 224.319C142.626 224.319 143.824 223.895 144.733 223.038C145.652 222.181 146.106 221.169 146.106 219.992C146.106 219.413 146.013 218.897 145.817 218.432C145.621 217.967 145.404 217.606 145.156 217.358C144.918 217.11 144.64 216.904 144.319 216.718C144.01 216.532 143.782 216.418 143.659 216.377C143.535 216.336 143.431 216.305 143.369 216.284Z" fill="#EFEFEF" fill-opacity="0.75"/>
<path d="M56.4618 240.941V259.724H63.4432C66.1676 259.724 68.4598 258.82 70.3197 256.999C72.1665 255.192 73.0965 252.965 73.0965 250.332C73.0965 247.713 72.1665 245.486 70.3197 243.665C68.4598 241.858 66.1676 240.941 63.4432 240.941H56.4618ZM63.4432 244.569C65.0411 244.569 66.3902 245.132 67.4643 246.246C68.5383 247.372 69.0754 248.734 69.0754 250.345C69.0754 251.956 68.5252 253.319 67.425 254.432C66.3248 255.558 64.9887 256.109 63.4432 256.109H60.4961V244.569H63.4432ZM80.8768 256.109V251.943H88.5131V248.328H80.8768V244.569H90.6612V240.941H76.8426V259.724H90.9362V256.109H80.8768ZM107.427 259.724V256.109H98.7165V240.941H94.6823V259.724H107.427ZM110.505 259.724H114.539V240.941H110.505V259.724ZM124.454 259.724H128.751L135.732 240.941H131.436L126.603 254.89L121.782 240.941H117.486L124.454 259.724ZM142.7 256.109V251.943H150.336V248.328H142.7V244.569H152.485V240.941H138.666V259.724H152.76V256.109H142.7ZM156.506 259.724H160.54V253.148H164.024L167.639 259.724H171.935L167.914 252.611L168.255 252.428C168.491 252.323 168.766 252.127 169.106 251.839C169.434 251.55 169.761 251.21 170.075 250.804C170.39 250.411 170.665 249.874 170.901 249.219C171.136 248.564 171.254 247.87 171.254 247.11C171.254 245.381 170.652 243.927 169.434 242.735C168.215 241.543 166.67 240.941 164.81 240.941H156.493L156.506 259.724ZM167.233 247.11C167.233 247.791 166.997 248.368 166.513 248.839C166.028 249.311 165.412 249.533 164.679 249.533H160.527V244.569H164.679C165.412 244.569 166.028 244.818 166.513 245.289C166.997 245.774 167.233 246.377 167.233 247.11Z" fill="#EFEFEF"/>
<path d="M224.377 176.253H4.32992C2.33659 176.253 0.776611 174.607 0.776611 172.7V4.30675C0.776611 2.31342 2.42326 0.753418 4.32992 0.753418H224.377C226.37 0.753418 227.93 2.31342 227.93 4.30675V172.613C227.93 174.607 226.37 176.253 224.377 176.253Z" fill="#1A1A1A"/>
<g opacity="0.5">
<path opacity="0.5" d="M218.5 9.93994H191.807V11.9333H218.5V9.93994Z" fill="white"/>
<path opacity="0.5" d="M218.413 14.7065H199.26V16.6999H218.413V14.7065Z" fill="white"/>
<path opacity="0.5" d="M218.5 19.5598H208.707V21.5531H218.5V19.5598Z" fill="white"/>
</g>
<path opacity="0.25" d="M138.853 168.107C138.853 170.88 139.027 173.566 139.2 176.253H224.827C226.82 176.253 228.38 174.693 228.38 172.7V78.4932C178.893 78.4932 138.853 118.62 138.853 168.107Z" fill="#2D2D2D"/>
<path opacity="0.75" d="M183.313 99.4665C189.392 99.4665 194.32 94.5386 194.32 88.4598C194.32 82.381 189.392 77.4531 183.313 77.4531C177.235 77.4531 172.307 82.381 172.307 88.4598C172.307 94.5386 177.235 99.4665 183.313 99.4665Z" fill="#2D2D2D"/>
<path opacity="0.75" d="M140.587 170.36C143.171 170.36 145.267 168.265 145.267 165.68C145.267 163.095 143.171 161 140.587 161C138.002 161 135.906 163.095 135.906 165.68C135.906 168.265 138.002 170.36 140.587 170.36Z" fill="#2D2D2D"/>
<path opacity="0.75" d="M128.8 176.08C128.627 173.567 128.54 171.053 128.54 168.453C128.54 135.433 144.573 106.053 169.36 87.9399" stroke="#2D2D2D" stroke-width="0.966593" stroke-miterlimit="10"/>
<path d="M141.887 84.6468C148.3 78.2334 148.3 67.9201 141.887 61.5068C135.473 55.0934 125.16 55.0934 118.747 61.5068C112.333 67.9201 112.333 78.2334 118.747 84.6468C125.073 90.9734 135.473 90.9734 141.887 84.6468ZM123.34 66.1001C127.153 62.2868 133.393 62.2868 137.207 66.1001C141.02 69.9134 141.02 76.1534 137.207 79.9668C133.393 83.7801 127.153 83.7801 123.34 79.9668C119.527 76.1534 119.527 69.9134 123.34 66.1001Z" fill="#2476F2"/>
<path d="M59.0333 140.113C58.6867 141.24 58.9467 142.54 59.8134 143.407C60.68 144.273 61.98 144.62 63.1066 144.187C65.9666 143.32 91.1 135.347 97.86 128.587C99.68 126.767 101.153 124.773 102.28 122.52C102.887 122.52 103.493 122.433 103.927 122.173C106.44 120.873 109.04 119.573 111.9 118.187C113.2 135.087 113.113 132.4 113.113 134.22C113.113 136.647 115.713 138.207 117.88 137.167C118.66 136.647 127.153 133.527 133.133 123.82C136.427 118.447 138.16 112.293 138.16 105.967V103.713C143.1 100.507 147.693 97.1268 151.42 93.4868C167.713 77.8001 171.353 58.4734 170.573 35.8534C170.487 34.1201 169.1 32.7334 167.453 32.7334C144.833 31.9534 125.507 35.5934 109.82 51.8868C106.267 55.5268 102.887 59.8601 99.7667 64.7134H97.08C84.34 64.7134 72.4667 71.9934 66.66 83.6068L65.88 85.1668C65.36 86.2068 65.4466 87.4201 66.0533 88.3734C66.66 89.3268 67.7 89.9334 68.8267 89.9334C70.6467 89.9334 67.7866 89.8468 85.2066 91.3201C83.82 94.0934 82.4333 96.7801 81.22 99.2934C80.96 99.8134 80.7866 100.507 80.8733 101.027C78.7066 102.067 76.7134 103.54 74.8934 105.36C67.96 112.207 59.9867 137.253 59.0333 140.113ZM103.06 115.24L87.98 100.16C88.9334 98.2534 89.8867 96.3468 91.1 94.0068L109.3 112.207C106.873 113.333 104.967 114.287 103.06 115.24ZM119.267 128.933L118.14 115.067C122.56 112.813 127.067 110.387 131.487 107.873C130.967 116.453 126.46 124.167 119.267 128.933ZM164.073 39.2334C164.16 46.3401 163.813 52.7534 162.773 58.3868C153.5 57.0868 146.22 49.8068 144.92 40.5334C150.553 39.4934 156.88 39.0601 164.073 39.2334ZM114.413 56.3934C121.26 49.2868 128.887 44.6068 138.507 41.9201C139.46 47.6401 142.147 52.8401 146.22 57.0001C150.38 61.1601 155.58 63.8468 161.3 64.7134C158.613 74.2468 153.933 81.9601 146.827 88.8068C138.94 96.4334 126.72 103.28 115.453 109.087L94.22 87.8534C99.94 76.5001 106.787 64.3668 114.413 56.3934ZM74.0267 83.6934C78.7934 76.4134 86.7666 71.8201 95.6066 71.3868C93.0066 75.8934 90.4933 80.4868 88.24 84.9934L74.0267 83.6934ZM84.9467 106.4L88.5866 110.04L81.6533 116.973C80.3533 118.273 80.3533 120.353 81.6533 121.567C82.9533 122.867 85.0334 122.867 86.2467 121.567L93.18 114.633L96.82 118.273C96.04 120.267 94.8267 122.173 93.18 123.82C89.4534 127.547 76.28 132.66 67.2667 135.78C70.3867 126.767 75.5 113.68 79.3134 109.953C81.0467 108.393 82.9534 107.18 84.9467 106.4Z" fill="#373737"/>
<path d="M113.98 89.2401C112.68 87.9401 110.6 87.9401 109.387 89.2401C108.087 90.5401 108.087 92.6201 109.387 93.8335C110.687 95.1335 112.767 95.1335 113.98 93.8335C115.28 92.6201 115.28 90.5401 113.98 89.2401Z" fill="#2476F2"/>
</svg>
