<svg width="228" height="266" viewBox="0 0 228 266" fill="none" xmlns="http://www.w3.org/2000/svg">
<path opacity="0.5" d="M87.9046 220.095C87.9046 220.921 87.6051 221.582 87.0268 222.088C86.4381 222.594 85.6015 222.842 84.5171 222.842C84.0111 222.842 83.5257 222.78 83.0506 222.646C82.5755 222.512 82.1934 222.367 81.9146 222.212C81.6357 222.057 81.3775 221.871 81.14 221.665C80.8921 221.458 80.7372 221.303 80.6649 221.221C80.5926 221.138 80.541 221.076 80.5203 221.035L79.5495 222.109L79.7457 222.346C79.849 222.491 80.0452 222.677 80.3344 222.904C80.6133 223.121 80.9334 223.338 81.2949 223.544C81.6667 223.751 82.1314 223.937 82.6995 224.092C83.2778 224.247 83.8768 224.319 84.5068 224.319C86.0663 224.319 87.2849 223.937 88.1628 223.152C89.051 222.367 89.4847 221.355 89.4847 220.095C89.4847 219.372 89.3402 218.763 89.0406 218.246C88.7515 217.73 88.359 217.337 87.8839 217.048C87.4089 216.769 86.8925 216.532 86.3245 216.336C85.7564 216.139 85.1884 215.964 84.6101 215.799C84.0421 215.633 83.5153 215.458 83.0403 215.251C82.5652 215.055 82.1831 214.776 81.8836 214.415C81.5944 214.063 81.4395 213.63 81.4395 213.113C81.4395 212.411 81.7287 211.812 82.307 211.316C82.8854 210.821 83.6496 210.573 84.6204 210.573C85.0335 210.573 85.426 210.635 85.8081 210.738C86.1902 210.841 86.5 210.965 86.7272 211.099C86.9545 211.234 87.1713 211.389 87.3779 211.554C87.5844 211.719 87.7187 211.843 87.7703 211.905C87.8323 211.967 87.8736 212.019 87.8943 212.06L88.958 210.996L88.7825 210.79C88.6792 210.666 88.4933 210.511 88.2351 210.325C87.9872 210.139 87.6981 209.963 87.3676 209.777C87.0474 209.592 86.6446 209.437 86.1592 209.302C85.6738 209.168 85.1574 209.096 84.6204 209.096C83.1952 209.096 82.0488 209.488 81.171 210.273C80.3034 211.058 79.8593 211.998 79.8593 213.113C79.8593 213.836 80.0143 214.446 80.3034 214.962C80.6029 215.478 80.9851 215.881 81.4601 216.16C81.9352 216.449 82.4516 216.687 83.0196 216.883C83.598 217.079 84.166 217.255 84.734 217.42C85.3124 217.585 85.8287 217.761 86.3038 217.957C86.7789 218.164 87.161 218.442 87.4502 218.794C87.7497 219.155 87.9046 219.589 87.9046 220.095ZM90.5485 209.302V210.79H95.2063V224.112H96.7864V210.79H101.444V209.302H90.5485ZM105.668 222.635V217.131H112.536V215.654H105.668V210.79H114.23V209.302H104.078V224.112H114.447V222.635H105.668ZM117.607 209.302V224.112H119.197V218.618H123.215C124.578 218.618 125.704 218.174 126.613 217.286C127.522 216.398 127.976 215.282 127.976 213.96C127.976 212.638 127.522 211.533 126.623 210.645C125.714 209.757 124.578 209.313 123.215 209.313L117.607 209.302ZM123.215 210.8C124.165 210.8 124.94 211.089 125.518 211.667C126.096 212.246 126.386 213.01 126.386 213.971C126.386 214.921 126.096 215.695 125.518 216.274C124.94 216.852 124.165 217.141 123.215 217.141H119.197V210.8H123.215ZM139.935 209.302L139.853 209.519C139.791 209.643 139.688 209.808 139.543 209.994C139.398 210.191 139.213 210.387 138.985 210.573C138.758 210.759 138.448 210.934 138.066 211.079C137.674 211.223 137.24 211.306 136.765 211.316V212.266H139.512V224.112H141.102V209.302H139.935Z" fill="#EFEFEF" fill-opacity="0.75"/>
<path d="M62.8732 240.941V259.724H69.8545C72.5789 259.724 74.8711 258.82 76.7311 256.999C78.5779 255.192 79.5079 252.965 79.5079 250.332C79.5079 247.713 78.5779 245.486 76.7311 243.665C74.8711 241.858 72.5789 240.941 69.8545 240.941H62.8732ZM69.8545 244.569C71.4525 244.569 72.8016 245.132 73.8757 246.246C74.9497 247.372 75.4867 248.734 75.4867 250.345C75.4867 251.956 74.9366 253.319 73.8364 254.432C72.7361 255.558 71.4001 256.109 69.8545 256.109H66.9074V244.569H69.8545ZM87.2882 256.109V251.943H94.9244V248.328H87.2882V244.569H97.0725V240.941H83.254V259.724H97.3476V256.109H87.2882ZM109.28 254.222C109.28 254.93 109.005 255.506 108.455 255.951C107.905 256.41 107.158 256.632 106.189 256.632C105.351 256.632 104.539 256.449 103.779 256.069C103.006 255.702 102.508 255.401 102.286 255.179C102.063 254.956 101.893 254.773 101.775 254.628L99.3516 257.039L99.6529 257.366C99.8232 257.576 100.111 257.837 100.517 258.139C100.91 258.453 101.382 258.754 101.906 259.043C102.43 259.344 103.111 259.606 103.923 259.815C104.735 260.025 105.586 260.13 106.451 260.13C108.678 260.13 110.42 259.58 111.677 258.479C112.934 257.379 113.563 255.964 113.563 254.222C113.563 252.991 113.249 251.983 112.607 251.171C111.978 250.372 111.205 249.795 110.289 249.442C109.372 249.101 108.468 248.787 107.564 248.525C106.66 248.263 105.888 247.948 105.259 247.569C104.63 247.189 104.303 246.678 104.303 246.049C104.303 245.499 104.539 245.014 105.01 244.621C105.482 244.228 106.097 244.032 106.857 244.032C107.499 244.032 108.114 244.189 108.717 244.477C109.319 244.779 109.725 245.014 109.909 245.198C110.092 245.381 110.236 245.525 110.341 245.656L112.751 243.102L112.515 242.84C112.371 242.657 112.122 242.434 111.782 242.185C111.441 241.936 111.035 241.687 110.577 241.452C110.118 241.216 109.529 241.006 108.809 240.823C108.101 240.64 107.355 240.561 106.582 240.561C104.643 240.561 103.058 241.098 101.84 242.172C100.622 243.246 100.007 244.543 100.007 246.062C100.007 247.293 100.334 248.302 100.963 249.114C101.605 249.913 102.377 250.489 103.281 250.843C104.185 251.184 105.089 251.485 106.005 251.747C106.922 252.009 107.695 252.323 108.324 252.716C108.953 253.096 109.28 253.594 109.28 254.222ZM117.178 259.724H121.212V240.941H117.178V259.724ZM135.961 249.533V252.48H139.314V255.034L138.908 255.375C138.62 255.637 138.135 255.886 137.454 256.135C136.76 256.384 136 256.501 135.162 256.501C133.407 256.501 131.94 255.912 130.761 254.733C129.582 253.554 128.993 252.087 128.993 250.332C128.993 248.577 129.582 247.11 130.761 245.931C131.94 244.752 133.407 244.163 135.162 244.163C135.791 244.163 136.419 244.268 137.035 244.464C137.638 244.661 138.135 244.87 138.515 245.106C138.882 245.342 139.236 245.604 139.55 245.905C139.864 246.219 140.074 246.429 140.166 246.56C140.257 246.691 140.336 246.783 140.388 246.848L142.942 244.294L142.641 243.901C142.445 243.652 142.13 243.338 141.685 242.971C141.24 242.604 140.742 242.238 140.166 241.871C139.589 241.504 138.869 241.203 137.978 240.941C137.087 240.679 136.144 240.548 135.162 240.548C132.294 240.548 129.87 241.504 127.906 243.416C125.941 245.329 124.959 247.634 124.959 250.332C124.959 253.03 125.941 255.349 127.906 257.261C129.87 259.174 132.294 260.13 135.162 260.13C136.158 260.13 137.114 259.999 138.057 259.737C139 259.475 139.76 259.187 140.336 258.872C140.912 258.558 141.462 258.191 141.986 257.772C142.51 257.353 142.838 257.065 142.995 256.894C143.152 256.724 143.257 256.593 143.335 256.501V249.533H135.961ZM160.494 240.941V252.886L151.247 240.941H147.749V259.724H151.784V247.791L161.031 259.724H164.515V240.941H160.494Z" fill="#EFEFEF"/>
<path d="M224.074 176.253H3.9403C1.94697 176.253 0.386963 174.607 0.386963 172.7V4.30675C0.386963 2.31342 2.03363 0.753418 3.9403 0.753418H223.987C225.98 0.753418 227.54 2.31342 227.54 4.30675V172.613C227.627 174.607 226.067 176.253 224.074 176.253Z" fill="#1A1A1A"/>
<g opacity="0.5">
<path opacity="0.5" d="M217.98 9.93994H191.287V11.9333H217.98V9.93994Z" fill="white"/>
<path opacity="0.5" d="M217.893 14.7065H198.74V16.6999H217.893V14.7065Z" fill="white"/>
<path opacity="0.5" d="M217.98 19.5598H208.187V21.5531H217.98V19.5598Z" fill="white"/>
</g>
<path opacity="0.25" d="M0.619995 78.4932V172.613C0.619995 174.606 2.18 176.166 4.17333 176.166H89.8C90.06 173.48 90.1466 170.793 90.1466 168.02C90.1466 118.62 50.1067 78.4932 0.619995 78.4932Z" fill="#2D2D2D"/>
<path opacity="0.75" d="M45.6866 99.4665C51.7654 99.4665 56.6933 94.5386 56.6933 88.4598C56.6933 82.381 51.7654 77.4531 45.6866 77.4531C39.6078 77.4531 34.6799 82.381 34.6799 88.4598C34.6799 94.5386 39.6078 99.4665 45.6866 99.4665Z" fill="#2D2D2D"/>
<path opacity="0.75" d="M88.4134 170.36C90.9981 170.36 93.0934 168.265 93.0934 165.68C93.0934 163.095 90.9981 161 88.4134 161C85.8287 161 83.7334 163.095 83.7334 165.68C83.7334 168.265 85.8287 170.36 88.4134 170.36Z" fill="#2D2D2D"/>
<path opacity="0.75" d="M100.2 176.08C100.373 173.567 100.46 171.053 100.46 168.453C100.46 135.433 84.4267 106.053 59.64 87.9399" stroke="#2D2D2D" stroke-width="0.966593" stroke-miterlimit="10"/>
<path d="M158.267 48.1598H172.827C174.82 48.1598 176.467 46.5132 176.467 44.5198V29.9598C176.467 27.9665 174.82 26.3198 172.827 26.3198H158.267C156.273 26.3198 154.627 27.9665 154.627 29.9598V33.5998H73.94V29.9598C73.94 27.9665 72.2933 26.3198 70.3 26.3198H55.74C53.7467 26.3198 52.1 27.9665 52.1 29.9598V44.5198C52.1 46.5132 53.7467 48.1598 55.74 48.1598H70.3C72.2933 48.1598 73.94 46.5132 73.94 44.5198V40.8798H86.94C71.5133 49.7198 60.7666 65.9265 59.5533 84.6465H55.74C53.7467 84.6465 52.1 86.2932 52.1 88.2865V102.846C52.1 104.84 53.7467 106.486 55.74 106.486H70.3C72.2933 106.486 73.94 104.84 73.94 102.846V88.1998C73.94 86.2065 72.2933 84.5598 70.3 84.5598H66.8333C68.5666 61.9398 86.3333 43.7398 108.78 41.1398C107.74 43.8265 107.48 44.0865 103.493 54.9198C98.12 69.4798 93.5266 81.9598 82.52 92.9665C81.1333 94.3531 81.1333 96.6931 82.52 98.0798C90.58 106.14 95.3466 117.06 95.9533 128.586H92.4C90.4066 128.586 88.76 130.233 88.76 132.226C88.76 134.22 90.4066 135.866 92.4 135.866H96.04V147.046C96.04 149.04 97.6866 150.686 99.68 150.686H128.8C130.793 150.686 132.44 149.04 132.44 147.046V135.866H136.08C138.073 135.866 139.72 134.22 139.72 132.226C139.72 130.233 138.073 128.586 136.08 128.586H132.527C133.133 117.146 137.9 106.14 145.96 98.0798C147.347 96.6931 147.347 94.3531 145.96 92.9665C135.04 82.0465 130.36 69.4798 124.987 54.9198C121 44.1732 120.74 43.8265 119.7 41.1398C142.147 43.7398 159.913 61.9398 161.647 84.5598H158.18C156.187 84.5598 154.54 86.2065 154.54 88.1998V102.76C154.54 104.753 156.187 106.4 158.18 106.4H172.74C174.733 106.4 176.38 104.753 176.38 102.76V88.1998C176.38 86.2065 174.733 84.5598 172.74 84.5598H169.013C167.8 65.8398 157.053 49.7198 141.627 40.7932H154.627V44.4332C154.627 46.5132 156.187 48.1598 158.267 48.1598ZM161.907 33.5998H169.187V40.8798H161.907V33.5998ZM66.5733 40.8798H59.2933V33.5998H66.5733V40.8798ZM66.5733 99.2065H59.2933V91.9265H66.5733V99.2065ZM125.16 143.406H103.32V135.866H125.16V143.406ZM138.42 95.5665C130.533 104.666 125.767 116.453 125.247 128.586H103.233C102.713 116.366 98.0333 104.666 90.06 95.5665C100.46 84.1265 105.227 71.1265 110.253 57.4332C110.34 57.1732 110.427 56.9132 110.513 56.6532V92.5331H117.793V56.6532C117.88 56.9132 117.967 57.1732 118.053 57.4332C123.253 71.1265 128.02 84.0398 138.42 95.5665ZM161.907 91.9265H169.187V99.2065H161.907V91.9265Z" fill="#373737"/>
<path d="M117.88 92.5332V56.6532L114.24 46.9465L110.6 56.6532V92.5332C106.353 94.0065 103.32 98.0799 103.32 102.847C103.32 108.913 108.173 113.767 114.24 113.767C120.307 113.767 125.16 108.913 125.16 102.847C125.16 98.0799 122.127 94.0065 117.88 92.5332ZM114.24 106.487C112.247 106.487 110.6 104.84 110.6 102.847C110.6 100.853 112.247 99.2065 114.24 99.2065C116.233 99.2065 117.88 100.853 117.88 102.847C117.88 104.84 116.233 106.487 114.24 106.487Z" fill="#2476F2"/>
</svg>
