<svg width="229" height="266" viewBox="0 0 229 266" fill="none" xmlns="http://www.w3.org/2000/svg">
<path opacity="0.5" d="M89.1662 220.095C89.1662 220.921 88.8667 221.582 88.2883 222.088C87.6997 222.594 86.8631 222.842 85.7787 222.842C85.2727 222.842 84.7873 222.78 84.3122 222.646C83.8371 222.512 83.455 222.367 83.1761 222.212C82.8973 222.057 82.6391 221.871 82.4016 221.665C82.1537 221.458 81.9988 221.303 81.9265 221.221C81.8542 221.138 81.8026 221.076 81.7819 221.035L80.8111 222.109L81.0073 222.346C81.1106 222.491 81.3068 222.677 81.596 222.904C81.8749 223.121 82.195 223.338 82.5565 223.544C82.9283 223.751 83.393 223.937 83.9611 224.092C84.5394 224.247 85.1384 224.319 85.7684 224.319C87.3279 224.319 88.5465 223.937 89.4244 223.152C90.3126 222.367 90.7463 221.355 90.7463 220.095C90.7463 219.372 90.6017 218.763 90.3022 218.246C90.0131 217.73 89.6206 217.337 89.1455 217.048C88.6705 216.769 88.1541 216.532 87.5861 216.336C87.018 216.139 86.45 215.964 85.8717 215.799C85.3036 215.633 84.7769 215.458 84.3019 215.251C83.8268 215.055 83.4447 214.776 83.1452 214.415C82.856 214.063 82.7011 213.63 82.7011 213.113C82.7011 212.411 82.9902 211.812 83.5686 211.316C84.1469 210.821 84.9112 210.573 85.882 210.573C86.2951 210.573 86.6876 210.635 87.0697 210.738C87.4518 210.841 87.7616 210.965 87.9888 211.099C88.2161 211.234 88.4329 211.389 88.6395 211.554C88.846 211.719 88.9803 211.843 89.0319 211.905C89.0939 211.967 89.1352 212.019 89.1559 212.06L90.2196 210.996L90.0441 210.79C89.9408 210.666 89.7549 210.511 89.4967 210.325C89.2488 210.139 88.9596 209.963 88.6292 209.777C88.309 209.592 87.9062 209.437 87.4208 209.302C86.9354 209.168 86.419 209.096 85.882 209.096C84.4568 209.096 83.3104 209.488 82.4326 210.273C81.565 211.058 81.1209 211.998 81.1209 213.113C81.1209 213.836 81.2759 214.446 81.565 214.962C81.8645 215.478 82.2467 215.881 82.7217 216.16C83.1968 216.449 83.7132 216.687 84.2812 216.883C84.8596 217.079 85.4276 217.255 85.9956 217.42C86.574 217.585 87.0903 217.761 87.5654 217.957C88.0405 218.164 88.4226 218.442 88.7118 218.794C89.0113 219.155 89.1662 219.589 89.1662 220.095ZM91.8101 209.302V210.79H96.4679V224.112H98.048V210.79H102.706V209.302H91.8101ZM106.93 222.635V217.131H113.798V215.654H106.93V210.79H115.491V209.302H105.339V224.112H115.708V222.635H106.93ZM118.869 209.302V224.112H120.459V218.618H124.477C125.84 218.618 126.966 218.174 127.874 217.286C128.783 216.398 129.238 215.282 129.238 213.96C129.238 212.638 128.783 211.533 127.885 210.645C126.976 209.757 125.84 209.313 124.477 209.313L118.869 209.302ZM124.477 210.8C125.427 210.8 126.201 211.089 126.78 211.667C127.358 212.246 127.647 213.01 127.647 213.971C127.647 214.921 127.358 215.695 126.78 216.274C126.201 216.852 125.427 217.141 124.477 217.141H120.459V210.8H124.477ZM145.752 224.112V222.635H138.026C138.223 222.036 138.563 221.458 139.039 220.911C139.514 220.374 140.03 219.909 140.588 219.527C141.145 219.145 141.734 218.732 142.354 218.277C142.973 217.823 143.531 217.389 144.027 216.976C144.523 216.563 144.925 216.046 145.256 215.427C145.586 214.817 145.752 214.156 145.752 213.444C145.752 212.204 145.307 211.172 144.43 210.346C143.541 209.519 142.395 209.106 140.99 209.106C140.278 209.106 139.638 209.23 139.059 209.478C138.481 209.726 138.047 209.994 137.737 210.294C137.427 210.583 137.169 210.924 136.942 211.316C136.715 211.698 136.581 211.967 136.529 212.122C136.488 212.266 136.457 212.39 136.436 212.494L137.81 213.124L137.892 212.865C137.934 212.68 138.026 212.473 138.171 212.225C138.316 211.977 138.491 211.729 138.708 211.482C138.925 211.234 139.235 211.017 139.638 210.841C140.04 210.666 140.484 210.583 140.98 210.583C141.972 210.583 142.746 210.841 143.304 211.368C143.872 211.884 144.151 212.576 144.151 213.444C144.151 214.084 143.955 214.693 143.562 215.272C143.17 215.84 142.674 216.315 142.085 216.697C141.507 217.089 140.867 217.523 140.185 218.019C139.503 218.515 138.873 219.01 138.285 219.506C137.706 220.002 137.211 220.642 136.818 221.448C136.426 222.253 136.219 223.142 136.219 224.112H145.752Z" fill="#EFEFEF" fill-opacity="0.75"/>
<path d="M50.5326 240.941V259.724H57.514C60.2384 259.724 62.5306 258.82 64.3905 256.999C66.2373 255.192 67.1673 252.965 67.1673 250.332C67.1673 247.713 66.2373 245.486 64.3905 243.665C62.5306 241.858 60.2384 240.941 57.514 240.941H50.5326ZM57.514 244.569C59.1119 244.569 60.461 245.132 61.5351 246.246C62.6091 247.372 63.1462 248.734 63.1462 250.345C63.1462 251.956 62.596 253.319 61.4958 254.432C60.3956 255.558 59.0595 256.109 57.514 256.109H54.5669V244.569H57.514ZM74.9476 256.109V251.943H82.5839V248.328H74.9476V244.569H84.732V240.941H70.9134V259.724H85.007V256.109H74.9476ZM93.8483 259.724H98.1445L105.126 240.941H100.83L95.9964 254.89L91.1763 240.941H86.8801L93.8483 259.724ZM112.094 256.109V251.943H119.73V248.328H112.094V244.569H121.878V240.941H108.06V259.724H122.153V256.109H112.094ZM138.644 259.724V256.109H129.934V240.941H125.9V259.724H138.644ZM143.739 250.345C143.739 248.616 144.316 247.149 145.494 245.957C146.66 244.766 148.088 244.163 149.764 244.163C151.441 244.163 152.869 244.766 154.034 245.957C155.213 247.149 155.79 248.616 155.79 250.345C155.79 252.074 155.213 253.541 154.034 254.72C152.869 255.912 151.441 256.501 149.764 256.501C148.088 256.501 146.66 255.912 145.494 254.72C144.316 253.541 143.739 252.074 143.739 250.345ZM139.574 250.332C139.574 253.03 140.556 255.349 142.521 257.261C144.486 259.174 146.909 260.13 149.764 260.13C152.62 260.13 155.043 259.174 157.008 257.261C158.972 255.349 159.955 253.03 159.955 250.332C159.955 247.634 158.972 245.329 157.008 243.416C155.043 241.504 152.62 240.548 149.764 240.548C146.909 240.548 144.486 241.504 142.521 243.416C140.556 245.329 139.574 247.634 139.574 250.332ZM163.727 240.941V259.724H167.761V253.554H171.638C173.577 253.554 175.175 252.952 176.445 251.747C177.703 250.542 178.345 249.036 178.345 247.254C178.345 245.473 177.703 243.967 176.432 242.761C175.162 241.556 173.564 240.954 171.638 240.954L163.727 240.941ZM171.507 244.582C172.306 244.582 172.974 244.831 173.511 245.355C174.048 245.879 174.323 246.508 174.323 247.267C174.323 248.014 174.048 248.643 173.511 249.167C172.974 249.677 172.306 249.939 171.507 249.939H167.761V244.582H171.507Z" fill="#EFEFEF"/>
<path d="M224.202 176.253H4.06833C2.07499 176.253 0.515015 174.607 0.515015 172.7V4.30675C0.515015 2.31342 2.07499 0.753418 4.06833 0.753418H224.115C226.108 0.753418 227.668 2.31342 227.668 4.30675V172.613C227.755 174.607 226.195 176.253 224.202 176.253Z" fill="#1A1A1A"/>
<g opacity="0.5">
<path opacity="0.5" d="M218.74 9.93994H192.047V11.9333H218.74V9.93994Z" fill="white"/>
<path opacity="0.5" d="M218.653 14.7065H199.5V16.6999H218.653V14.7065Z" fill="white"/>
<path opacity="0.5" d="M218.74 19.5598H208.947V21.5531H218.74V19.5598Z" fill="white"/>
</g>
<path opacity="0.25" d="M90.9067 8.90009C90.9067 6.12675 90.7333 3.44008 90.56 0.753418H4.93332C2.93998 0.753418 1.38 2.31342 1.38 4.30675V98.4268C50.8667 98.4268 90.9067 58.3868 90.9067 8.90009Z" fill="#2D2D2D"/>
<path opacity="0.75" d="M46.4467 99.4665C52.5256 99.4665 57.4534 94.5386 57.4534 88.4598C57.4534 82.381 52.5256 77.4531 46.4467 77.4531C40.3679 77.4531 35.4401 82.381 35.4401 88.4598C35.4401 94.5386 40.3679 99.4665 46.4467 99.4665Z" fill="#2D2D2D"/>
<path opacity="0.75" d="M89.1734 15.9201C91.7581 15.9201 93.8533 13.8247 93.8533 11.2401C93.8533 8.65536 91.7581 6.56006 89.1734 6.56006C86.5887 6.56006 84.4933 8.65536 84.4933 11.2401C84.4933 13.8247 86.5887 15.9201 89.1734 15.9201Z" fill="#2D2D2D"/>
<path opacity="0.75" d="M100.96 0.839844C101.133 3.35318 101.22 5.86651 101.22 8.46651C101.22 41.5732 85.1866 70.8665 60.3999 88.9798" stroke="#2D2D2D" stroke-width="0.966593" stroke-miterlimit="10"/>
<path d="M52.2533 147.047H177.747C179.913 147.047 181.647 145.313 181.647 143.147C181.647 136.82 181.647 40.4466 181.647 33.86C181.647 31.6933 179.913 29.96 177.747 29.96H52.2533C50.0866 29.96 48.3533 31.6933 48.3533 33.86V143.147C48.3533 145.313 50.0866 147.047 52.2533 147.047ZM56.1533 37.76H173.847V61.16H56.1533V37.76ZM56.1533 68.96H173.847V139.247H56.1533V68.96Z" fill="#373737"/>
<path d="M94.3733 93.5733C92.8133 92.0133 90.3866 92.0133 88.8266 93.5733L73.2266 109.173C71.6666 110.733 71.6666 113.16 73.2266 114.72L88.8266 130.32C90.3866 131.88 92.8133 131.88 94.3733 130.32C95.9333 128.76 95.9333 126.333 94.3733 124.773L81.5467 111.947L94.3733 99.12C95.8467 97.56 95.8467 95.0467 94.3733 93.5733Z" fill="#2476F2"/>
<path d="M124.533 92.7934C122.627 91.84 120.287 92.62 119.333 94.5267L103.733 125.727C102.78 127.633 103.56 129.973 105.467 130.927C107.373 131.88 109.713 131.1 110.667 129.193L126.267 97.9934C127.307 96.0867 126.44 93.7467 124.533 92.7934Z" fill="#373737"/>
<path d="M141.173 93.5733C139.613 92.0133 137.187 92.0133 135.627 93.5733C134.067 95.1333 134.067 97.56 135.627 99.12L148.453 111.947L135.627 124.773C134.067 126.333 134.067 128.76 135.627 130.32C137.187 131.88 139.613 131.88 141.173 130.32L156.773 114.72C158.333 113.16 158.333 110.733 156.773 109.173L141.173 93.5733Z" fill="#2476F2"/>
<path d="M161.887 76.76H68.1133C65.9466 76.76 64.2133 78.4933 64.2133 80.66C64.2133 82.8267 65.9466 84.56 68.1133 84.56H161.8C163.967 84.56 165.7 82.8267 165.7 80.66C165.7 78.4933 163.967 76.76 161.887 76.76Z" fill="#373737"/>
<path d="M134.5 49.4601C134.5 51.6267 132.767 53.3601 130.6 53.3601C128.433 53.3601 126.7 51.6267 126.7 49.4601C126.7 47.2934 128.433 45.5601 130.6 45.5601C132.767 45.5601 134.5 47.2934 134.5 49.4601Z" fill="#373737"/>
<path d="M150.1 49.4601C150.1 51.6267 148.367 53.3601 146.2 53.3601C144.033 53.3601 142.3 51.6267 142.3 49.4601C142.3 47.2934 144.033 45.5601 146.2 45.5601C148.367 45.5601 150.1 47.2934 150.1 49.4601Z" fill="#373737"/>
<path d="M165.787 49.4601C165.787 51.6267 164.053 53.3601 161.887 53.3601C159.72 53.3601 157.987 51.6267 157.987 49.4601C157.987 47.2934 159.72 45.5601 161.887 45.5601C164.053 45.5601 165.787 47.2934 165.787 49.4601Z" fill="#2476F2"/>
<path d="M107.2 45.5601H68.1999C66.0333 45.5601 64.2999 47.2934 64.2999 49.4601C64.2999 51.6267 66.0333 53.3601 68.1999 53.3601H107.2C109.367 53.3601 111.1 51.6267 111.1 49.4601C111.1 47.2934 109.367 45.5601 107.2 45.5601Z" fill="#373737"/>
</svg>
